<svg xmlns="http://www.w3.org/2000/svg" viewBox="0 0 163.5 154.29"><defs><style>.cls-1{fill:#fff;stroke:#000;stroke-linecap:round;stroke-linejoin:round;stroke-width:5px;}</style></defs><title>Add User</title><g id="Layer_2" data-name="Layer 2"><g id="Add_Person" data-name="Add Person"><g id="Users"><path class="cls-1" d="M97.75,2.5c14.13,0,15.08,3.77,18.85,4.71C127.72,10,126,36.68,126,41.13c4.71,0,2.83,10.37-2.83,15.08a33.32,33.32,0,0,1-2.82,13.19c-1.89,4.72-2.83,6.6-1,18.85s39.58,8.48,39.58,32H36.5c0-23.56,37.69-19.79,39.58-32s.94-14.13-1-18.85a33.32,33.32,0,0,1-2.82-13.19C69.48,53.38,63.83,44,69.48,41.13c0-5.65-.94-38.63,28.27-38.63"/><path class="cls-1" d="M67.5,3.29c15,0,16,4,20,5,11.8,3,10,31.27,10,36,5,0,3,11-3,16a35.29,35.29,0,0,1-3,14c-2,5-3,7-1,20s42,9,42,34H2.5c0-25,40-21,42-34s1-15-1-20a35.29,35.29,0,0,1-3-14c-3-3-9-13-3-16,0-6-1-41,30-41"/></g><g id="Plus"><circle class="cls-1" cx="125" cy="115.79" r="36"/><line class="cls-1" x1="106.5" y1="116.29" x2="143.5" y2="116.29"/><line class="cls-1" x1="125.5" y1="134.79" x2="125.5" y2="97.79"/></g></g></g></svg>