<svg xmlns="http://www.w3.org/2000/svg" viewBox="0 0 116 146"><defs><style>.cls-1{fill:#fff;}.cls-1,.cls-2{stroke:#000;stroke-miterlimit:10;stroke-width:5px;}.cls-2{fill:none;}</style></defs><title>Profile</title><g id="Layer_2" data-name="Layer 2"><g id="Profile"><rect class="cls-1" x="2.5" y="2.5" width="98" height="127"/><rect class="cls-1" x="15.5" y="16.5" width="98" height="127"/><line class="cls-2" x1="71" y1="39" x2="99" y2="39"/><line class="cls-2" x1="71" y1="53.5" x2="99" y2="53.5"/><line class="cls-2" x1="26" y1="85.5" x2="98.5" y2="85.5"/><line class="cls-2" x1="26" y1="101.5" x2="98.5" y2="101.5"/><path d="M40.5,27.85c4,0,4.31,1.07,5.38,1.34,3.18.8,2.7,8.42,2.7,9.69,1.34,0,.8,3-.81,4.31A9.45,9.45,0,0,1,47,47c-.54,1.35-.81,1.89-.27,5.39S58,54.77,58,61.5H23c0-6.73,10.77-5.65,11.31-9.15s.27-4-.27-5.39a9.45,9.45,0,0,1-.81-3.77c-.81-.81-2.42-3.5-.81-4.31,0-1.61-.27-11,8.08-11"/><line class="cls-2" x1="26" y1="117.5" x2="98.5" y2="117.5"/></g></g></svg>