<svg xmlns="http://www.w3.org/2000/svg" viewBox="0 0 153 154"><defs><style>.cls-1{fill:none;stroke:#000;stroke-miterlimit:10;stroke-width:5px;}</style></defs><title>Settings</title><g id="Layer_2" data-name="Layer 2"><g id="Settings"><circle class="cls-1" cx="76.06" cy="76.5" r="26"/><path d="M83.87,5l7.66,22.2a51.6,51.6,0,0,1,8.12,3.22l20.75-10.1,11.13,11.13-9.71,20a51.06,51.06,0,0,1,4.05,9.08L148,68.13V83.87l-21.44,7.4a51.86,51.86,0,0,1-4.19,10.3l9.87,20.28L121.11,133l-20.4-9.93a51.49,51.49,0,0,1-8,3.39L84.87,149H69.13l-7.68-22.24a51.18,51.18,0,0,1-9.46-4l-20.28,9.87L20.58,121.55l9.93-20.4a51.82,51.82,0,0,1-3.62-8.72L5,84.87V69.13l21.9-7.56a51.47,51.47,0,0,1,3.32-8.16L19.87,32.15,31,21,51.92,31.2a51.42,51.42,0,0,1,8.41-3.6L68.13,5H83.87m0-5H68.13a5,5,0,0,0-4.72,3.37l-7,20.32q-2.31.87-4.52,1.93L33.19,16.53a5,5,0,0,0-5.72,1L16.34,28.62a5,5,0,0,0-1,5.72l9.28,19.08C24,54.8,23.46,56.21,23,57.64L3.37,64.41A5,5,0,0,0,0,69.13V84.87a5,5,0,0,0,3.37,4.72l19.57,6.76c.59,1.63,1.26,3.25,2,4.82l-8.85,18.2a5,5,0,0,0,1,5.72l11.12,11.13a5,5,0,0,0,5.73,1l18-8.78c1.84.88,3.71,1.66,5.59,2.34l6.88,19.89A5,5,0,0,0,69.13,154H84.87a5,5,0,0,0,4.72-3.37l7-20.27c1.41-.53,2.79-1.11,4.13-1.74l18.19,8.85a5,5,0,0,0,5.73-1l11.13-11.13a5,5,0,0,0,1-5.72l-8.79-18a57,57,0,0,0,2.63-6.45l19-6.58A5,5,0,0,0,153,83.87V68.13a5,5,0,0,0-3.37-4.72l-19.87-6.87a53.22,53.22,0,0,0-2.33-5.24L136,33.63a5,5,0,0,0-1-5.72L123.94,16.78a5,5,0,0,0-3.54-1.46,4.93,4.93,0,0,0-2.18.5L99.61,24.87c-1.37-.6-2.76-1.16-4.16-1.65L88.59,3.37A5,5,0,0,0,83.87,0Z"/></g></g></svg>