<svg xmlns="http://www.w3.org/2000/svg" viewBox="0 0 161.5 130"><defs><style>.cls-1{fill:#fff;stroke:#000;stroke-linecap:round;stroke-linejoin:round;stroke-width:5px;}</style></defs><title>Users</title><g id="Layer_2" data-name="Layer 2"><g id="Users"><g id="Users-2" data-name="Users"><path class="cls-1" d="M97.75,2.71c14.13,0,15.08,3.77,18.85,4.71C127.72,10.2,126,36.89,126,41.35c4.71,0,2.83,10.36-2.83,15.07a33.4,33.4,0,0,1-2.82,13.2c-1.89,4.71-2.83,6.59-1,18.84S159,96.94,159,120.5H36.5c0-23.56,37.69-19.79,39.58-32s.94-14.13-1-18.84a33.4,33.4,0,0,1-2.82-13.2c-2.83-2.82-8.48-12.25-2.83-15.07,0-5.66-.94-38.64,28.27-38.64"/><path class="cls-1" d="M67.5,2.5c15,0,16,4,20,5,11.8,2.95,10,31.28,10,36,5,0,3,11-3,16a35.29,35.29,0,0,1-3,14c-2,5-3,7-1,20s42,9,42,34H2.5c0-25,40-21,42-34s1-15-1-20a35.29,35.29,0,0,1-3-14c-3-3-9-13-3-16,0-6-1-41,30-41"/></g></g></g></svg>